<svg width="139" height="52" viewBox="0 0 139 52" fill="none" xmlns="http://www.w3.org/2000/svg">
<path d="M15.8289 33.1627C12.596 33.1627 9.78257 32.5732 7.38867 31.3942C4.99476 30.2123 3.16298 28.5898 1.89611 26.5265C0.632036 24.4603 0 22.1458 0 19.5814C0 16.9917 0.650214 14.6715 1.95204 12.6194C3.25666 10.5688 5.15696 8.9532 7.65155 7.77417C10.1461 6.59233 13.1217 6 16.5784 6C18.7597 6 20.8082 6.29055 22.7253 6.87024C24.641 7.44713 26.112 8.09981 27.1384 8.82969V11.6594C26.1875 10.8284 24.7529 10.0803 22.8372 9.41359C20.9201 8.74828 18.8338 8.41422 16.5784 8.41422C13.695 8.41422 11.2144 8.90548 9.13376 9.8852C7.05587 10.8663 5.47158 12.2068 4.3795 13.9052C3.29022 15.6007 2.74628 17.4928 2.74628 19.5814C2.74628 21.6447 3.27764 23.5255 4.34035 25.2239C5.40586 26.9195 6.93002 28.2655 8.91003 29.2607C10.89 30.2531 13.1958 30.7485 15.8289 30.7485C17.9319 30.7485 19.9035 30.4846 21.7465 29.9569C23.5881 29.4291 25.0102 28.8508 26.0141 28.222V30.9394C25.0367 31.4938 23.6202 32.0034 21.7633 32.4666C19.9091 32.9297 17.9319 33.1627 15.8289 33.1627Z" fill="#151515"/>
<path d="M54.053 33.1627C50.5963 33.1627 47.6207 32.5732 45.1262 31.3942C42.6316 30.2123 40.7313 28.5954 39.4266 26.5433C38.1248 24.4926 37.4746 22.1724 37.4746 19.5814C37.4746 16.9917 38.1248 14.6715 39.4266 12.6194C40.7313 10.5688 42.6316 8.9532 45.1262 7.77417C47.6207 6.59233 50.5963 6 54.053 6C57.5096 6 60.4852 6.59233 62.9798 7.77417C65.4744 8.9532 67.3719 10.5688 68.6737 12.6194C69.9741 14.6715 70.6257 16.9917 70.6257 19.5814C70.6257 22.1724 69.9741 24.4926 68.6737 26.5433C67.3719 28.5954 65.4744 30.2123 62.9798 31.3942C60.4852 32.5732 57.5096 33.1627 54.053 33.1627ZM54.053 30.7485C56.9349 30.7485 59.4141 30.2587 61.492 29.2775C63.5727 28.2978 65.1569 26.9588 66.2462 25.2632C67.3383 23.5648 67.885 21.6699 67.885 19.5814C67.885 17.4928 67.3383 15.6007 66.2462 13.9052C65.1569 12.2068 63.5727 10.8663 61.492 9.8852C59.4141 8.90548 56.9349 8.41422 54.053 8.41422C51.1697 8.41422 48.689 8.90548 46.6084 9.8852C44.5305 10.8663 42.9462 12.2068 41.8541 13.9052C40.7648 15.6007 40.2209 17.4928 40.2209 19.5814C40.2209 21.6699 40.7648 23.5648 41.8541 25.2632C42.9462 26.9588 44.5305 28.2978 46.6084 29.2775C48.689 30.2587 51.1697 30.7485 54.053 30.7485Z" fill="#151515"/>
<path d="M108.777 32.7869H106.037L102.2 25.3533H84.9111L81.0798 32.7869H78.3335L91.9418 6.37646H95.1747L108.777 32.7869ZM93.4408 8.79068L86.2256 22.8268H100.885L93.6702 8.79068H93.4408Z" fill="#151515"/>
<path d="M114.418 6.37646H139V8.90297H128.021V32.7869H125.392V8.90297H114.418V6.37646Z" fill="#151515"/>
<path d="M16.1671 51.5966H11.9219V45.561H12.5651V50.9902H16.1671V51.5966Z" fill="#151515"/>
<path d="M18.4421 48.795V50.9902H22.2231V51.5966H17.7988V45.561H22.1336V46.1618H18.4421V48.1886H21.7477V48.795H18.4421Z" fill="#151515"/>
<path d="M29.3113 51.5966H28.6121L27.9633 50.0863H24.7416L24.0872 51.5966H23.416L26.0337 45.561H26.6881L29.3113 51.5966ZM27.7004 49.4855L26.3525 46.3358L24.9989 49.4855H27.7004Z" fill="#151515"/>
<path d="M33.0694 51.5966H32.4262V46.1618H30.228V45.561H35.2731V46.1618H33.0694V51.5966Z" fill="#151515"/>
<path d="M41.3536 48.2054V45.561H41.9968V51.5966H41.3536V48.8118H37.6173V51.5966H36.9741V45.561H37.6173V48.2054H41.3536Z" fill="#151515"/>
<path d="M44.9967 48.795V50.9902H48.7778V51.5966H44.3535V45.561H48.6883V46.1618H44.9967V48.1886H48.3023V48.795H44.9967Z" fill="#151515"/>
<path d="M54.7475 51.5966L53.0919 49.0981H51.3971V51.5966H50.7539V45.561H53.3548C53.7575 45.561 54.1098 45.6396 54.4119 45.7968C54.7139 45.9512 54.946 46.1618 55.111 46.4313C55.2746 46.698 55.3571 46.9969 55.3571 47.3296C55.3571 47.7717 55.2187 48.1493 54.9432 48.4637C54.6706 48.7753 54.2958 48.9718 53.819 49.0532L55.5138 51.5966H54.7475ZM51.3971 46.1618V48.4918H53.3212C53.7687 48.4918 54.1112 48.3879 54.3504 48.1774C54.5923 47.9682 54.7139 47.6861 54.7139 47.3296C54.7139 46.9703 54.5923 46.6867 54.3504 46.4762C54.1112 46.2671 53.7687 46.1618 53.3212 46.1618H51.3971Z" fill="#151515"/>
<path d="M65.4535 51.5973H64.5921L63.7755 50.7888C63.514 51.085 63.2162 51.311 62.8806 51.4682C62.545 51.6212 62.1884 51.6984 61.8123 51.6984C61.4613 51.6984 61.1523 51.638 60.8838 51.5187C60.6153 51.3994 60.4042 51.231 60.2518 51.0134C60.098 50.793 60.0225 50.5418 60.0225 50.2611C60.0225 49.9284 60.1092 49.6364 60.2853 49.3852C60.4643 49.1311 60.751 48.849 61.1467 48.5374L61.3481 48.3802L61.253 48.2848C60.9537 47.9928 60.7384 47.7402 60.6042 47.5268C60.4699 47.3107 60.4028 47.0833 60.4028 46.8475C60.4028 46.5822 60.4671 46.3422 60.5986 46.1288C60.7286 45.9155 60.9118 45.7512 61.1467 45.6347C61.3816 45.5154 61.6459 45.4551 61.9409 45.4551C62.2206 45.4551 62.4751 45.5168 62.7072 45.6404C62.9379 45.7639 63.1225 45.9323 63.2609 46.1457C63.398 46.3562 63.4679 46.5892 63.4679 46.8475C63.4679 47.0945 63.4008 47.3191 63.2665 47.5212C63.1323 47.7205 62.9198 47.9367 62.6289 48.1725L62.2653 48.4588L63.742 49.913L64.5138 48.8462H65.2577L64.1671 50.3228L65.4535 51.5973ZM61.046 46.8475C61.046 47.0089 61.1034 47.1759 61.2194 47.3472C61.3383 47.5198 61.5466 47.7514 61.8459 48.0433L62.1703 47.7851C62.394 47.6054 62.5576 47.4426 62.6625 47.2966C62.7701 47.1506 62.8247 47.0019 62.8247 46.8475C62.8247 46.6159 62.7422 46.4264 62.5786 46.2804C62.4136 46.1344 62.2038 46.0614 61.9465 46.0614C61.6697 46.0614 61.4501 46.1344 61.2865 46.2804C61.1257 46.4264 61.046 46.6159 61.046 46.8475ZM61.8123 51.0976C62.3828 51.0976 62.9002 50.859 63.3672 50.379L61.7787 48.8125L61.5606 48.9753C61.2614 49.2041 61.0376 49.4119 60.8894 49.5985C60.7398 49.7866 60.6657 49.9958 60.6657 50.2274C60.6657 50.4969 60.7664 50.7102 60.9677 50.8674C61.1691 51.0218 61.4501 51.0976 61.8123 51.0976Z" fill="#151515"/>
<path d="M71.8793 51.6984C71.4094 51.6984 70.9969 51.6169 70.6432 51.4569C70.2922 51.2927 70.0181 51.0695 69.8209 50.7888C69.6224 50.5053 69.5105 50.1881 69.4854 49.84H70.1286C70.1733 50.2302 70.3481 50.5362 70.6543 50.7607C70.9592 50.9853 71.3717 51.0976 71.8904 51.0976C72.3966 51.0976 72.7868 50.9994 73.0594 50.8C73.3307 50.6021 73.4677 50.3439 73.4677 50.0252C73.4677 49.7782 73.3894 49.5803 73.2328 49.4301C73.079 49.2771 72.8888 49.1578 72.6623 49.0708C72.4386 48.9852 72.1324 48.8897 71.745 48.7845C71.2864 48.6581 70.92 48.5402 70.6487 48.4307C70.3761 48.3227 70.1426 48.1612 69.9496 47.9479C69.7594 47.7317 69.6643 47.4468 69.6643 47.0945C69.6643 46.7913 69.7482 46.5148 69.916 46.2636C70.0838 46.0137 70.3271 45.8172 70.6487 45.674C70.969 45.5281 71.3479 45.4551 71.7842 45.4551C72.2121 45.4551 72.5868 45.5365 72.9084 45.6965C73.2286 45.8537 73.4803 46.0713 73.6635 46.3478C73.8495 46.6215 73.9557 46.9303 73.9823 47.2742H73.3391C73.2971 46.8924 73.1391 46.5948 72.8637 46.3815C72.591 46.1681 72.2344 46.0614 71.7954 46.0614C71.3171 46.0614 70.9508 46.1569 70.6935 46.3478C70.4362 46.5359 70.3076 46.7843 70.3076 47.0945C70.3076 47.3163 70.3775 47.4973 70.5201 47.6391C70.6655 47.7781 70.8459 47.8889 71.0626 47.9704C71.2822 48.049 71.5744 48.1332 71.9408 48.223C72.4134 48.3465 72.7924 48.4672 73.0762 48.5823C73.3587 48.6946 73.602 48.8687 73.8033 49.1045C74.0075 49.3375 74.111 49.6477 74.111 50.0365C74.111 50.3593 74.0243 50.6456 73.8537 50.8955C73.6817 51.1467 73.4258 51.3432 73.0874 51.485C72.7518 51.6268 72.3491 51.6984 71.8793 51.6984Z" fill="#151515"/>
<path d="M80.4869 48.2054V45.561H81.1301V51.5966H80.4869V48.8118H76.7506V51.5966H76.1074V45.561H76.7506V48.2054H80.4869Z" fill="#151515"/>
<path d="M84.1305 48.795V50.9902H87.9116V51.5966H83.4873V45.561H87.8221V46.1618H84.1305V48.1886H87.4361V48.795H84.1305Z" fill="#151515"/>
<path d="M94.9993 51.5966H94.3001L93.6513 50.0863H90.4296L89.7752 51.5966H89.104L91.7216 45.561H92.376L94.9993 51.5966ZM93.3884 49.4855L92.0405 46.3358L90.6869 49.4855H93.3884Z" fill="#151515"/>
<path d="M100.565 51.5966L98.9093 49.0981H97.2145V51.5966H96.5713V45.561H99.1721C99.5749 45.561 99.9272 45.6396 100.229 45.7968C100.531 45.9512 100.763 46.1618 100.928 46.4313C101.092 46.698 101.175 46.9969 101.175 47.3296C101.175 47.7717 101.036 48.1493 100.761 48.4637C100.488 48.7753 100.113 48.9718 99.6364 49.0532L101.331 51.5966H100.565ZM97.2145 46.1618V48.4918H99.1386C99.586 48.4918 99.9286 48.3879 100.168 48.1774C100.41 47.9682 100.531 47.6861 100.531 47.3296C100.531 46.9703 100.41 46.6867 100.168 46.4762C99.9286 46.2671 99.586 46.1618 99.1386 46.1618H97.2145Z" fill="#151515"/>
<path d="M107.492 51.5966H103.247V45.561H103.89V50.9902H107.492V51.5966Z" fill="#151515"/>
<path d="M109.767 51.5966H109.124V45.561H109.767V51.5966Z" fill="#151515"/>
<path d="M116.584 50.5467V45.561H117.232V51.5966H116.623L112.763 46.6109V51.5966H112.12V45.561H112.73L116.584 50.5467Z" fill="#151515"/>
<path d="M122.445 48.6497H125.213V51.5973H124.783L124.626 50.6316C124.409 50.9348 124.1 51.1902 123.697 51.3952C123.298 51.5973 122.821 51.6984 122.266 51.6984C121.698 51.6984 121.176 51.5622 120.699 51.2885C120.225 51.012 119.849 50.6358 119.57 50.16C119.293 49.6814 119.156 49.1536 119.156 48.5767C119.156 48.004 119.293 47.4805 119.57 47.0047C119.849 46.526 120.23 46.1485 120.711 45.8705C121.192 45.594 121.72 45.4551 122.299 45.4551C122.78 45.4551 123.214 45.5477 123.602 45.7302C123.994 45.9098 124.314 46.1499 124.564 46.4488C124.818 46.7492 124.996 47.0692 125.101 47.4089H124.458C124.055 46.5106 123.335 46.0614 122.299 46.0614C121.829 46.0614 121.404 46.1681 121.024 46.3815C120.644 46.5948 120.343 46.8924 120.123 47.2742C119.907 47.6559 119.799 48.0911 119.799 48.5767C119.799 49.068 119.907 49.5031 120.123 49.8849C120.343 50.2667 120.644 50.5642 121.024 50.7776C121.404 50.9909 121.829 51.0976 122.299 51.0976C122.727 51.0976 123.11 51.0232 123.446 50.873C123.781 50.72 124.047 50.5025 124.246 50.2218C124.443 49.9382 124.553 49.6084 124.576 49.2336H122.445V48.6497Z" fill="#151515"/>
</svg>
