<svg width="20" height="20" viewBox="0 0 20 20" fill="none" xmlns="http://www.w3.org/2000/svg">
<path d="M19.8646 10.4123C20.0523 10.1551 20.0442 9.80403 19.8442 9.55502C16.8193 5.83616 13.5535 3.9502 10.1327 3.9502C4.33189 3.9502 0.302789 9.35499 0.135419 9.5836C-0.0523606 9.84077 -0.0441963 10.1918 0.15583 10.4409C3.17664 14.1638 6.44238 16.0498 9.86324 16.0498C15.664 16.0498 19.6931 10.645 19.8646 10.4123ZM9.86324 14.6496C7.01388 14.6496 4.238 13.082 1.60092 9.9959C2.63371 8.77533 5.91578 5.35038 10.1327 5.35038C12.982 5.35038 15.7579 6.91794 18.395 10.0041C17.3622 11.2246 14.0801 14.6496 9.86324 14.6496Z" fill="#151515"/>
<path d="M9.99698 6.44434C8.03754 6.44434 6.44141 8.04047 6.44141 9.99991C6.44141 11.9594 8.03754 13.5555 9.99698 13.5555C11.9564 13.5555 13.5526 11.9594 13.5526 9.99991C13.5526 8.04047 11.9564 6.44434 9.99698 6.44434ZM9.99698 12.1553C8.80907 12.1553 7.84159 11.1878 7.84159 9.99991C7.84159 8.812 8.80907 7.84452 9.99698 7.84452C11.1849 7.84452 12.1524 8.812 12.1524 9.99991C12.1524 11.1878 11.1849 12.1553 9.99698 12.1553Z" fill="#151515"/>
</svg>
